<svg
  xmlns="http://www.w3.org/2000/svg"
  viewBox="0 0 64 64"
  width="64"
  height="64"
  aria-label="Blogzilla Logo"
>
  <defs>
    <!-- Gradient -->
    <linearGradient id="blogzillaGradient" x1="0" y1="0" x2="1" y2="1">
      <stop offset="0%" stop-color="#3b82f6" />
      <stop offset="100%" stop-color="#22c55e" />
    </linearGradient>
  </defs>

  <!-- Background -->
  <rect
    x="4"
    y="4"
    width="56"
    height="56"
    rx="14"
    fill="#ffffff"
    stroke="#e5e7eb"
    stroke-width="2"
  />

  <!-- Dino body -->
  <path
    d="M22 44c6 2 14 2 20 0 2-1 3-3 2-5l-2-6 2-3c1-2 0-4-2-5l-6-3-3-4c-1-2-4-2-5 0l-3 4-6 3c-2 1-3 3-2 5l2 3-2 6c-1 2 0 4 2 5Z"
    fill="url(#blogzillaGradient)"
  />

  <!-- Eye -->
  <circle cx="32" cy="26" r="2" fill="#0f172a" />

  <!-- Smile -->
  <path
    d="M27 34c3 2 7 2 10 0"
    stroke="#0f172a"
    stroke-width="2"
    stroke-linecap="round"
    fill="none"
  />
</svg>

